<?xml version="1.0" encoding="UTF-8" standalone="no"?>
<!DOCTYPE svg PUBLIC "-//W3C//DTD SVG 1.1//EN"
 "http://www.w3.org/Graphics/SVG/1.1/DTD/svg11.dtd">
<!-- Generated by graphviz version 2.38.0 (20140413.2041)
 -->
<!-- Title: controllers_diagram Pages: 1 -->
<svg width="826pt" height="781pt"
 viewBox="0.00 0.00 826.21 781.00" xmlns="http://www.w3.org/2000/svg" xmlns:xlink="http://www.w3.org/1999/xlink">
<g id="graph0" class="graph" transform="scale(1 1) rotate(0) translate(310.162 420.5)">
<title>controllers_diagram</title>
<polygon fill="none" stroke="none" points="-310.162,360.5 -310.162,-420.5 516.045,-420.5 516.045,360.5 -310.162,360.5"/>
<!-- _diagram_info -->
<g id="node1" class="node"><title>_diagram_info</title>
<text text-anchor="start" x="-9.44971" y="-365.1" font-family="Times,serif" font-size="13.00">Controllers diagram</text>
<text text-anchor="start" x="-9.44971" y="-352.1" font-family="Times,serif" font-size="13.00">Date: Jul 30 2015 &#45; 00:47</text>
<text text-anchor="start" x="-9.44971" y="-339.1" font-family="Times,serif" font-size="13.00">Migration version: 20150718011644</text>
<text text-anchor="start" x="-9.44971" y="-326.1" font-family="Times,serif" font-size="13.00">Generated by RailRoady 1.3.1</text>
<text text-anchor="start" x="-9.44971" y="-313.1" font-family="Times,serif" font-size="13.00">http://railroady.prestonlee.com</text>
</g>
<!-- API::BidsController -->
<g id="node2" class="node"><title>API::BidsController</title>
<path fill="none" stroke="black" d="M233.221,-222C233.221,-222 338.779,-222 338.779,-222 344.779,-222 350.779,-228 350.779,-234 350.779,-234 350.779,-384 350.779,-384 350.779,-390 344.779,-396 338.779,-396 338.779,-396 233.221,-396 233.221,-396 227.221,-396 221.221,-390 221.221,-384 221.221,-384 221.221,-234 221.221,-234 221.221,-228 227.221,-222 233.221,-222"/>
<text text-anchor="middle" x="286" y="-380.8" font-family="Times,serif" font-size="14.00">API::BidsController</text>
<polyline fill="none" stroke="black" points="221.221,-374 350.779,-374 "/>
<text text-anchor="start" x="229.221" y="-358.8" font-family="Times,serif" font-size="14.00">create</text>
<text text-anchor="start" x="229.221" y="-344.8" font-family="Times,serif" font-size="14.00">destroy</text>
<text text-anchor="start" x="229.221" y="-330.8" font-family="Times,serif" font-size="14.00">index</text>
<text text-anchor="start" x="229.221" y="-316.8" font-family="Times,serif" font-size="14.00">new</text>
<text text-anchor="start" x="229.221" y="-302.8" font-family="Times,serif" font-size="14.00">show</text>
<text text-anchor="start" x="229.221" y="-288.8" font-family="Times,serif" font-size="14.00">update</text>
<polyline fill="none" stroke="black" points="221.221,-282 350.779,-282 "/>
<polyline fill="none" stroke="black" points="221.221,-258 350.779,-258 "/>
<text text-anchor="start" x="229.221" y="-242.8" font-family="Times,serif" font-size="14.00">_layout</text>
<text text-anchor="start" x="229.221" y="-228.8" font-family="Times,serif" font-size="14.00">bid_params</text>
</g>
<!-- API::CompanyProfilesController -->
<g id="node3" class="node"><title>API::CompanyProfilesController</title>
<path fill="none" stroke="black" d="M-89.5552,84C-89.5552,84 87.5552,84 87.5552,84 93.5552,84 99.5552,78 99.5552,72 99.5552,72 99.5552,-50 99.5552,-50 99.5552,-56 93.5552,-62 87.5552,-62 87.5552,-62 -89.5552,-62 -89.5552,-62 -95.5552,-62 -101.555,-56 -101.555,-50 -101.555,-50 -101.555,72 -101.555,72 -101.555,78 -95.5552,84 -89.5552,84"/>
<text text-anchor="middle" x="-1" y="-46.8" font-family="Times,serif" font-size="14.00">API::CompanyProfilesController</text>
<polyline fill="none" stroke="black" points="-101.555,-40 99.5552,-40 "/>
<text text-anchor="start" x="-93.5552" y="-24.8" font-family="Times,serif" font-size="14.00">create</text>
<text text-anchor="start" x="-93.5552" y="-10.8" font-family="Times,serif" font-size="14.00">new</text>
<text text-anchor="start" x="-93.5552" y="3.2" font-family="Times,serif" font-size="14.00">show</text>
<text text-anchor="start" x="-93.5552" y="17.2" font-family="Times,serif" font-size="14.00">update</text>
<polyline fill="none" stroke="black" points="-101.555,24 99.5552,24 "/>
<polyline fill="none" stroke="black" points="-101.555,48 99.5552,48 "/>
<text text-anchor="start" x="-93.5552" y="63.2" font-family="Times,serif" font-size="14.00">_layout</text>
<text text-anchor="start" x="-93.5552" y="77.2" font-family="Times,serif" font-size="14.00">company_profile_params</text>
</g>
<!-- API::FollowsController -->
<g id="node4" class="node"><title>API::FollowsController</title>
<path fill="none" stroke="black" d="M369.497,356C369.497,356 494.503,356 494.503,356 500.503,356 506.503,350 506.503,344 506.503,344 506.503,264 506.503,264 506.503,258 500.503,252 494.503,252 494.503,252 369.497,252 369.497,252 363.497,252 357.497,258 357.497,264 357.497,264 357.497,344 357.497,344 357.497,350 363.497,356 369.497,356"/>
<text text-anchor="middle" x="432" y="267.2" font-family="Times,serif" font-size="14.00">API::FollowsController</text>
<polyline fill="none" stroke="black" points="357.497,274 506.503,274 "/>
<text text-anchor="start" x="365.497" y="289.2" font-family="Times,serif" font-size="14.00">create</text>
<text text-anchor="start" x="365.497" y="303.2" font-family="Times,serif" font-size="14.00">destroy</text>
<polyline fill="none" stroke="black" points="357.497,310 506.503,310 "/>
<polyline fill="none" stroke="black" points="357.497,334 506.503,334 "/>
<text text-anchor="start" x="365.497" y="349.2" font-family="Times,serif" font-size="14.00">_layout</text>
</g>
<!-- API::ProjectsController -->
<g id="node5" class="node"><title>API::ProjectsController</title>
<path fill="none" stroke="black" d="M-73.4932,-103C-73.4932,-103 51.4932,-103 51.4932,-103 57.4932,-103 63.4932,-109 63.4932,-115 63.4932,-115 63.4932,-265 63.4932,-265 63.4932,-271 57.4932,-277 51.4932,-277 51.4932,-277 -73.4932,-277 -73.4932,-277 -79.4932,-277 -85.4932,-271 -85.4932,-265 -85.4932,-265 -85.4932,-115 -85.4932,-115 -85.4932,-109 -79.4932,-103 -73.4932,-103"/>
<text text-anchor="middle" x="-11" y="-261.8" font-family="Times,serif" font-size="14.00">API::ProjectsController</text>
<polyline fill="none" stroke="black" points="-85.4932,-255 63.4932,-255 "/>
<text text-anchor="start" x="-77.4932" y="-239.8" font-family="Times,serif" font-size="14.00">create</text>
<text text-anchor="start" x="-77.4932" y="-225.8" font-family="Times,serif" font-size="14.00">destroy</text>
<text text-anchor="start" x="-77.4932" y="-211.8" font-family="Times,serif" font-size="14.00">index</text>
<text text-anchor="start" x="-77.4932" y="-197.8" font-family="Times,serif" font-size="14.00">new</text>
<text text-anchor="start" x="-77.4932" y="-183.8" font-family="Times,serif" font-size="14.00">show</text>
<text text-anchor="start" x="-77.4932" y="-169.8" font-family="Times,serif" font-size="14.00">update</text>
<polyline fill="none" stroke="black" points="-85.4932,-163 63.4932,-163 "/>
<polyline fill="none" stroke="black" points="-85.4932,-139 63.4932,-139 "/>
<text text-anchor="start" x="-77.4932" y="-123.8" font-family="Times,serif" font-size="14.00">_layout</text>
<text text-anchor="start" x="-77.4932" y="-109.8" font-family="Times,serif" font-size="14.00">project_params</text>
</g>
<!-- API::ReviewsController -->
<g id="node6" class="node"><title>API::ReviewsController</title>
<path fill="none" stroke="black" d="M-260.048,271C-260.048,271 -131.952,271 -131.952,271 -125.952,271 -119.952,265 -119.952,259 -119.952,259 -119.952,123 -119.952,123 -119.952,117 -125.952,111 -131.952,111 -131.952,111 -260.048,111 -260.048,111 -266.048,111 -272.048,117 -272.048,123 -272.048,123 -272.048,259 -272.048,259 -272.048,265 -266.048,271 -260.048,271"/>
<text text-anchor="middle" x="-196" y="126.2" font-family="Times,serif" font-size="14.00">API::ReviewsController</text>
<polyline fill="none" stroke="black" points="-272.048,133 -119.952,133 "/>
<text text-anchor="start" x="-264.048" y="148.2" font-family="Times,serif" font-size="14.00">create</text>
<text text-anchor="start" x="-264.048" y="162.2" font-family="Times,serif" font-size="14.00">destroy</text>
<text text-anchor="start" x="-264.048" y="176.2" font-family="Times,serif" font-size="14.00">index</text>
<text text-anchor="start" x="-264.048" y="190.2" font-family="Times,serif" font-size="14.00">new</text>
<text text-anchor="start" x="-264.048" y="204.2" font-family="Times,serif" font-size="14.00">show</text>
<polyline fill="none" stroke="black" points="-272.048,211 -119.952,211 "/>
<polyline fill="none" stroke="black" points="-272.048,235 -119.952,235 "/>
<text text-anchor="start" x="-264.048" y="250.2" font-family="Times,serif" font-size="14.00">_layout</text>
<text text-anchor="start" x="-264.048" y="264.2" font-family="Times,serif" font-size="14.00">review_params</text>
</g>
<!-- API::UsersController -->
<g id="node7" class="node"><title>API::UsersController</title>
<path fill="none" stroke="black" d="M-242.883,-256C-242.883,-256 -131.117,-256 -131.117,-256 -125.117,-256 -119.117,-262 -119.117,-268 -119.117,-268 -119.117,-404 -119.117,-404 -119.117,-410 -125.117,-416 -131.117,-416 -131.117,-416 -242.883,-416 -242.883,-416 -248.883,-416 -254.883,-410 -254.883,-404 -254.883,-404 -254.883,-268 -254.883,-268 -254.883,-262 -248.883,-256 -242.883,-256"/>
<text text-anchor="middle" x="-187" y="-400.8" font-family="Times,serif" font-size="14.00">API::UsersController</text>
<polyline fill="none" stroke="black" points="-254.883,-394 -119.117,-394 "/>
<text text-anchor="start" x="-246.883" y="-378.8" font-family="Times,serif" font-size="14.00">companies_index</text>
<text text-anchor="start" x="-246.883" y="-364.8" font-family="Times,serif" font-size="14.00">destroy</text>
<text text-anchor="start" x="-246.883" y="-350.8" font-family="Times,serif" font-size="14.00">show</text>
<text text-anchor="start" x="-246.883" y="-336.8" font-family="Times,serif" font-size="14.00">update</text>
<text text-anchor="start" x="-246.883" y="-322.8" font-family="Times,serif" font-size="14.00">users_index</text>
<polyline fill="none" stroke="black" points="-254.883,-316 -119.117,-316 "/>
<polyline fill="none" stroke="black" points="-254.883,-292 -119.117,-292 "/>
<text text-anchor="start" x="-246.883" y="-276.8" font-family="Times,serif" font-size="14.00">_layout</text>
<text text-anchor="start" x="-246.883" y="-262.8" font-family="Times,serif" font-size="14.00">user_params</text>
</g>
<!-- ApplicationController -->
<g id="node8" class="node"><title>ApplicationController</title>
<path fill="none" stroke="black" d="M148.034,135C148.034,135 321.966,135 321.966,135 327.966,135 333.966,129 333.966,123 333.966,123 333.966,15 333.966,15 333.966,9 327.966,3 321.966,3 321.966,3 148.034,3 148.034,3 142.034,3 136.034,9 136.034,15 136.034,15 136.034,123 136.034,123 136.034,129 142.034,135 148.034,135"/>
<text text-anchor="middle" x="235" y="18.2" font-family="Times,serif" font-size="14.00">ApplicationController</text>
<polyline fill="none" stroke="black" points="136.034,25 333.966,25 "/>
<polyline fill="none" stroke="black" points="136.034,49 333.966,49 "/>
<text text-anchor="start" x="144.034" y="64.2" font-family="Times,serif" font-size="14.00">configure_permitted_parameters</text>
<text text-anchor="start" x="144.034" y="78.2" font-family="Times,serif" font-size="14.00">require_signed_in!</text>
<text text-anchor="start" x="144.034" y="92.2" font-family="Times,serif" font-size="14.00">signed_in?</text>
<text text-anchor="start" x="144.034" y="106.2" font-family="Times,serif" font-size="14.00">validate_user!</text>
<polyline fill="none" stroke="black" points="136.034,113 333.966,113 "/>
<text text-anchor="start" x="144.034" y="128.2" font-family="Times,serif" font-size="14.00">_layout</text>
</g>
<!-- ProjectsController -->
<g id="node9" class="node"><title>ProjectsController</title>
<path fill="none" stroke="black" d="M368.676,-35C368.676,-35 463.324,-35 463.324,-35 469.324,-35 475.324,-41 475.324,-47 475.324,-47 475.324,-169 475.324,-169 475.324,-175 469.324,-181 463.324,-181 463.324,-181 368.676,-181 368.676,-181 362.676,-181 356.676,-175 356.676,-169 356.676,-169 356.676,-47 356.676,-47 356.676,-41 362.676,-35 368.676,-35"/>
<text text-anchor="middle" x="416" y="-165.8" font-family="Times,serif" font-size="14.00">ProjectsController</text>
<polyline fill="none" stroke="black" points="356.676,-159 475.324,-159 "/>
<text text-anchor="start" x="364.676" y="-143.8" font-family="Times,serif" font-size="14.00">create</text>
<text text-anchor="start" x="364.676" y="-129.8" font-family="Times,serif" font-size="14.00">index</text>
<text text-anchor="start" x="364.676" y="-115.8" font-family="Times,serif" font-size="14.00">new</text>
<text text-anchor="start" x="364.676" y="-101.8" font-family="Times,serif" font-size="14.00">show</text>
<polyline fill="none" stroke="black" points="356.676,-95 475.324,-95 "/>
<polyline fill="none" stroke="black" points="356.676,-71 475.324,-71 "/>
<text text-anchor="start" x="364.676" y="-55.8" font-family="Times,serif" font-size="14.00">_layout</text>
<text text-anchor="start" x="364.676" y="-41.8" font-family="Times,serif" font-size="14.00">project_params</text>
</g>
<!-- StaticPagesController -->
<g id="node10" class="node"><title>StaticPagesController</title>
<path fill="none" stroke="black" d="M385.955,220C385.955,220 500.045,220 500.045,220 506.045,220 512.045,214 512.045,208 512.045,208 512.045,140 512.045,140 512.045,134 506.045,128 500.045,128 500.045,128 385.955,128 385.955,128 379.955,128 373.955,134 373.955,140 373.955,140 373.955,208 373.955,208 373.955,214 379.955,220 385.955,220"/>
<text text-anchor="middle" x="443" y="143.2" font-family="Times,serif" font-size="14.00">StaticPagesController</text>
<polyline fill="none" stroke="black" points="373.955,150 512.045,150 "/>
<polyline fill="none" stroke="black" points="373.955,174 512.045,174 "/>
<polyline fill="none" stroke="black" points="373.955,198 512.045,198 "/>
<text text-anchor="start" x="381.955" y="213.2" font-family="Times,serif" font-size="14.00">_layout</text>
</g>
<!-- TagsController -->
<g id="node11" class="node"><title>TagsController</title>
<path fill="none" stroke="black" d="M386.109,101C386.109,101 461.891,101 461.891,101 467.891,101 473.891,95 473.891,89 473.891,89 473.891,9 473.891,9 473.891,3 467.891,-3 461.891,-3 461.891,-3 386.109,-3 386.109,-3 380.109,-3 374.109,3 374.109,9 374.109,9 374.109,89 374.109,89 374.109,95 380.109,101 386.109,101"/>
<text text-anchor="middle" x="424" y="12.2" font-family="Times,serif" font-size="14.00">TagsController</text>
<polyline fill="none" stroke="black" points="374.109,19 473.891,19 "/>
<text text-anchor="start" x="382.109" y="34.2" font-family="Times,serif" font-size="14.00">create</text>
<text text-anchor="start" x="382.109" y="48.2" font-family="Times,serif" font-size="14.00">show</text>
<polyline fill="none" stroke="black" points="374.109,55 473.891,55 "/>
<polyline fill="none" stroke="black" points="374.109,79 473.891,79 "/>
<text text-anchor="start" x="382.109" y="94.2" font-family="Times,serif" font-size="14.00">_layout</text>
</g>
<!-- Users::ConfirmationsController -->
<g id="node12" class="node"><title>Users::ConfirmationsController</title>
<path fill="none" stroke="black" d="M-72.6621,203C-72.6621,203 96.6621,203 96.6621,203 102.662,203 108.662,197 108.662,191 108.662,191 108.662,123 108.662,123 108.662,117 102.662,111 96.6621,111 96.6621,111 -72.6621,111 -72.6621,111 -78.6621,111 -84.6621,117 -84.6621,123 -84.6621,123 -84.6621,191 -84.6621,191 -84.6621,197 -78.6621,203 -72.6621,203"/>
<text text-anchor="middle" x="12" y="126.2" font-family="Times,serif" font-size="14.00">Users::ConfirmationsController</text>
<polyline fill="none" stroke="black" points="-84.6621,133 108.662,133 "/>
<polyline fill="none" stroke="black" points="-84.6621,157 108.662,157 "/>
<polyline fill="none" stroke="black" points="-84.6621,181 108.662,181 "/>
<text text-anchor="start" x="-76.6621" y="196.2" font-family="Times,serif" font-size="14.00">_layout</text>
</g>
<!-- Users::OmniauthCallbacksController -->
<g id="node13" class="node"><title>Users::OmniauthCallbacksController</title>
<path fill="none" stroke="black" d="M113.796,-103C113.796,-103 314.204,-103 314.204,-103 320.204,-103 326.204,-109 326.204,-115 326.204,-115 326.204,-183 326.204,-183 326.204,-189 320.204,-195 314.204,-195 314.204,-195 113.796,-195 113.796,-195 107.796,-195 101.796,-189 101.796,-183 101.796,-183 101.796,-115 101.796,-115 101.796,-109 107.796,-103 113.796,-103"/>
<text text-anchor="middle" x="214" y="-179.8" font-family="Times,serif" font-size="14.00">Users::OmniauthCallbacksController</text>
<polyline fill="none" stroke="black" points="101.796,-173 326.204,-173 "/>
<polyline fill="none" stroke="black" points="101.796,-149 326.204,-149 "/>
<polyline fill="none" stroke="black" points="101.796,-125 326.204,-125 "/>
<text text-anchor="start" x="109.796" y="-109.8" font-family="Times,serif" font-size="14.00">_layout</text>
</g>
<!-- Users::PasswordsController -->
<g id="node14" class="node"><title>Users::PasswordsController</title>
<path fill="none" stroke="black" d="M-294.162,16C-294.162,16 -145.838,16 -145.838,16 -139.838,16 -133.838,10 -133.838,4 -133.838,4 -133.838,-64 -133.838,-64 -133.838,-70 -139.838,-76 -145.838,-76 -145.838,-76 -294.162,-76 -294.162,-76 -300.162,-76 -306.162,-70 -306.162,-64 -306.162,-64 -306.162,4 -306.162,4 -306.162,10 -300.162,16 -294.162,16"/>
<text text-anchor="middle" x="-220" y="-60.8" font-family="Times,serif" font-size="14.00">Users::PasswordsController</text>
<polyline fill="none" stroke="black" points="-306.162,-54 -133.838,-54 "/>
<polyline fill="none" stroke="black" points="-306.162,-30 -133.838,-30 "/>
<polyline fill="none" stroke="black" points="-306.162,-6 -133.838,-6 "/>
<text text-anchor="start" x="-298.162" y="9.2" font-family="Times,serif" font-size="14.00">_layout</text>
</g>
<!-- Users::RegistrationsController -->
<g id="node15" class="node"><title>Users::RegistrationsController</title>
<path fill="none" stroke="black" d="M148.455,288C148.455,288 311.545,288 311.545,288 317.545,288 323.545,282 323.545,276 323.545,276 323.545,182 323.545,182 323.545,176 317.545,170 311.545,170 311.545,170 148.455,170 148.455,170 142.455,170 136.455,176 136.455,182 136.455,182 136.455,276 136.455,276 136.455,282 142.455,288 148.455,288"/>
<text text-anchor="middle" x="230" y="185.2" font-family="Times,serif" font-size="14.00">Users::RegistrationsController</text>
<polyline fill="none" stroke="black" points="136.455,192 323.545,192 "/>
<text text-anchor="start" x="144.455" y="207.2" font-family="Times,serif" font-size="14.00">after_sign_up_path_for</text>
<text text-anchor="start" x="144.455" y="221.2" font-family="Times,serif" font-size="14.00">create</text>
<text text-anchor="start" x="144.455" y="235.2" font-family="Times,serif" font-size="14.00">new</text>
<polyline fill="none" stroke="black" points="136.455,242 323.545,242 "/>
<polyline fill="none" stroke="black" points="136.455,266 323.545,266 "/>
<text text-anchor="start" x="144.455" y="281.2" font-family="Times,serif" font-size="14.00">_layout</text>
</g>
<!-- Users::SessionsController -->
<g id="node16" class="node"><title>Users::SessionsController</title>
<path fill="none" stroke="black" d="M-259.721,-103C-259.721,-103 -122.279,-103 -122.279,-103 -116.279,-103 -110.279,-109 -110.279,-115 -110.279,-115 -110.279,-209 -110.279,-209 -110.279,-215 -116.279,-221 -122.279,-221 -122.279,-221 -259.721,-221 -259.721,-221 -265.721,-221 -271.721,-215 -271.721,-209 -271.721,-209 -271.721,-115 -271.721,-115 -271.721,-109 -265.721,-103 -259.721,-103"/>
<text text-anchor="middle" x="-191" y="-205.8" font-family="Times,serif" font-size="14.00">Users::SessionsController</text>
<polyline fill="none" stroke="black" points="-271.721,-199 -110.279,-199 "/>
<text text-anchor="start" x="-263.721" y="-183.8" font-family="Times,serif" font-size="14.00">create</text>
<text text-anchor="start" x="-263.721" y="-169.8" font-family="Times,serif" font-size="14.00">destroy</text>
<text text-anchor="start" x="-263.721" y="-155.8" font-family="Times,serif" font-size="14.00">new</text>
<polyline fill="none" stroke="black" points="-271.721,-149 -110.279,-149 "/>
<polyline fill="none" stroke="black" points="-271.721,-125 -110.279,-125 "/>
<text text-anchor="start" x="-263.721" y="-109.8" font-family="Times,serif" font-size="14.00">_layout</text>
</g>
<!-- Users::UnlocksController -->
<g id="node17" class="node"><title>Users::UnlocksController</title>
<path fill="none" stroke="black" d="M-72.9346,322C-72.9346,322 62.9346,322 62.9346,322 68.9346,322 74.9346,316 74.9346,310 74.9346,310 74.9346,242 74.9346,242 74.9346,236 68.9346,230 62.9346,230 62.9346,230 -72.9346,230 -72.9346,230 -78.9346,230 -84.9346,236 -84.9346,242 -84.9346,242 -84.9346,310 -84.9346,310 -84.9346,316 -78.9346,322 -72.9346,322"/>
<text text-anchor="middle" x="-5" y="245.2" font-family="Times,serif" font-size="14.00">Users::UnlocksController</text>
<polyline fill="none" stroke="black" points="-84.9346,252 74.9346,252 "/>
<polyline fill="none" stroke="black" points="-84.9346,276 74.9346,276 "/>
<polyline fill="none" stroke="black" points="-84.9346,300 74.9346,300 "/>
<text text-anchor="start" x="-76.9346" y="315.2" font-family="Times,serif" font-size="14.00">_layout</text>
</g>
</g>
</svg>
