<?xml version="1.0" encoding="UTF-8" standalone="no"?>
<!DOCTYPE svg PUBLIC "-//W3C//DTD SVG 1.1//EN"
 "http://www.w3.org/Graphics/SVG/1.1/DTD/svg11.dtd">
<!-- Generated by graphviz version 2.38.0 (20140413.2041)
 -->
<!-- Title: models_diagram Pages: 1 -->
<svg width="804pt" height="734pt"
 viewBox="0.00 0.00 803.85 734.00" xmlns="http://www.w3.org/2000/svg" xmlns:xlink="http://www.w3.org/1999/xlink">
<g id="graph0" class="graph" transform="scale(1 1) rotate(0) translate(4 730)">
<title>models_diagram</title>
<polygon fill="none" stroke="none" points="-4,4 -4,-730 799.854,-730 799.854,4 -4,4"/>
<!-- _diagram_info -->
<g id="node1" class="node"><title>_diagram_info</title>
<text text-anchor="start" x="14.1262" y="-585.6" font-family="Times,serif" font-size="13.00">Models diagram</text>
<text text-anchor="start" x="14.1262" y="-572.6" font-family="Times,serif" font-size="13.00">Date: Jul 30 2015 &#45; 00:47</text>
<text text-anchor="start" x="14.1262" y="-559.6" font-family="Times,serif" font-size="13.00">Migration version: 20150718011644</text>
<text text-anchor="start" x="14.1262" y="-546.6" font-family="Times,serif" font-size="13.00">Generated by RailRoady 1.3.1</text>
<text text-anchor="start" x="14.1262" y="-533.6" font-family="Times,serif" font-size="13.00">http://railroady.prestonlee.com</text>
</g>
<!-- Bid -->
<g id="node2" class="node"><title>Bid</title>
<path fill="none" stroke="black" d="M35.0705,-14.5C35.0705,-14.5 144.081,-14.5 144.081,-14.5 150.081,-14.5 156.081,-20.5 156.081,-26.5 156.081,-26.5 156.081,-130.5 156.081,-130.5 156.081,-136.5 150.081,-142.5 144.081,-142.5 144.081,-142.5 35.0705,-142.5 35.0705,-142.5 29.0705,-142.5 23.0705,-136.5 23.0705,-130.5 23.0705,-130.5 23.0705,-26.5 23.0705,-26.5 23.0705,-20.5 29.0705,-14.5 35.0705,-14.5"/>
<text text-anchor="middle" x="89.5759" y="-127.3" font-family="Times,serif" font-size="14.00">Bid</text>
<polyline fill="none" stroke="black" points="23.0705,-120.5 156.081,-120.5 "/>
<text text-anchor="start" x="31.0705" y="-105.3" font-family="Times,serif" font-size="14.00">id :integer</text>
<text text-anchor="start" x="31.0705" y="-91.3" font-family="Times,serif" font-size="14.00">project_id :integer</text>
<text text-anchor="start" x="31.0705" y="-77.3" font-family="Times,serif" font-size="14.00">price :integer</text>
<text text-anchor="start" x="31.0705" y="-63.3" font-family="Times,serif" font-size="14.00">bidder_id :integer</text>
<text text-anchor="start" x="31.0705" y="-49.3" font-family="Times,serif" font-size="14.00">content :text</text>
<text text-anchor="start" x="31.0705" y="-35.3" font-family="Times,serif" font-size="14.00">created_at :datetime</text>
<text text-anchor="start" x="31.0705" y="-21.3" font-family="Times,serif" font-size="14.00">updated_at :datetime</text>
</g>
<!-- CompanyProfile -->
<g id="node3" class="node"><title>CompanyProfile</title>
<path fill="none" stroke="black" d="M43.6863,-222.5C43.6863,-222.5 127.466,-222.5 127.466,-222.5 133.466,-222.5 139.466,-228.5 139.466,-234.5 139.466,-234.5 139.466,-310.5 139.466,-310.5 139.466,-316.5 133.466,-322.5 127.466,-322.5 127.466,-322.5 43.6863,-322.5 43.6863,-322.5 37.6863,-322.5 31.6863,-316.5 31.6863,-310.5 31.6863,-310.5 31.6863,-234.5 31.6863,-234.5 31.6863,-228.5 37.6863,-222.5 43.6863,-222.5"/>
<text text-anchor="middle" x="85.5759" y="-307.3" font-family="Times,serif" font-size="14.00">CompanyProfile</text>
<polyline fill="none" stroke="black" points="31.6863,-300.5 139.466,-300.5 "/>
<text text-anchor="start" x="39.6863" y="-285.3" font-family="Times,serif" font-size="14.00">id :integer</text>
<text text-anchor="start" x="39.6863" y="-271.3" font-family="Times,serif" font-size="14.00">name :string</text>
<text text-anchor="start" x="39.6863" y="-257.3" font-family="Times,serif" font-size="14.00">description :text</text>
<text text-anchor="start" x="39.6863" y="-243.3" font-family="Times,serif" font-size="14.00">location :string</text>
<text text-anchor="start" x="39.6863" y="-229.3" font-family="Times,serif" font-size="14.00">user_id :integer</text>
</g>
<!-- Project -->
<g id="node4" class="node"><title>Project</title>
<path fill="none" stroke="black" d="M169.071,-194.5C169.071,-194.5 278.081,-194.5 278.081,-194.5 284.081,-194.5 290.081,-200.5 290.081,-206.5 290.081,-206.5 290.081,-338.5 290.081,-338.5 290.081,-344.5 284.081,-350.5 278.081,-350.5 278.081,-350.5 169.071,-350.5 169.071,-350.5 163.071,-350.5 157.071,-344.5 157.071,-338.5 157.071,-338.5 157.071,-206.5 157.071,-206.5 157.071,-200.5 163.071,-194.5 169.071,-194.5"/>
<text text-anchor="middle" x="223.576" y="-335.3" font-family="Times,serif" font-size="14.00">Project</text>
<polyline fill="none" stroke="black" points="157.071,-328.5 290.081,-328.5 "/>
<text text-anchor="start" x="165.071" y="-313.3" font-family="Times,serif" font-size="14.00">id :integer</text>
<text text-anchor="start" x="165.071" y="-299.3" font-family="Times,serif" font-size="14.00">title :string</text>
<text text-anchor="start" x="165.071" y="-285.3" font-family="Times,serif" font-size="14.00">description :text</text>
<text text-anchor="start" x="165.071" y="-271.3" font-family="Times,serif" font-size="14.00">user_id :integer</text>
<text text-anchor="start" x="165.071" y="-257.3" font-family="Times,serif" font-size="14.00">created_at :datetime</text>
<text text-anchor="start" x="165.071" y="-243.3" font-family="Times,serif" font-size="14.00">updated_at :datetime</text>
<text text-anchor="start" x="165.071" y="-229.3" font-family="Times,serif" font-size="14.00">complexity :integer</text>
<text text-anchor="start" x="165.071" y="-215.3" font-family="Times,serif" font-size="14.00">price :integer</text>
<text text-anchor="start" x="165.071" y="-201.3" font-family="Times,serif" font-size="14.00">time_line :integer</text>
</g>
<!-- Project&#45;&gt;Bid -->
<g id="edge2" class="edge"><title>Project&#45;&gt;Bid</title>
<path fill="none" stroke="#bf2193" d="M164.873,-187.389C156.464,-175.339 147.877,-163.036 139.654,-151.253"/>
<ellipse fill="none" stroke="#bf2193" cx="167.363" cy="-190.956" rx="4.00002" ry="4.00002"/>
<polygon fill="#bf2193" stroke="#bf2193" points="139.461,-150.978 137.428,-140.202 136.6,-146.878 133.738,-142.777 133.738,-142.777 133.738,-142.777 136.6,-146.878 130.048,-145.353 139.461,-150.978 139.461,-150.978"/>
</g>
<!-- Review -->
<g id="node5" class="node"><title>Review</title>
<path fill="none" stroke="black" d="M272.071,-0.5C272.071,-0.5 381.081,-0.5 381.081,-0.5 387.081,-0.5 393.081,-6.5 393.081,-12.5 393.081,-12.5 393.081,-144.5 393.081,-144.5 393.081,-150.5 387.081,-156.5 381.081,-156.5 381.081,-156.5 272.071,-156.5 272.071,-156.5 266.071,-156.5 260.071,-150.5 260.071,-144.5 260.071,-144.5 260.071,-12.5 260.071,-12.5 260.071,-6.5 266.071,-0.5 272.071,-0.5"/>
<text text-anchor="middle" x="326.576" y="-141.3" font-family="Times,serif" font-size="14.00">Review</text>
<polyline fill="none" stroke="black" points="260.071,-134.5 393.081,-134.5 "/>
<text text-anchor="start" x="268.071" y="-119.3" font-family="Times,serif" font-size="14.00">id :integer</text>
<text text-anchor="start" x="268.071" y="-105.3" font-family="Times,serif" font-size="14.00">reviewer_id :integer</text>
<text text-anchor="start" x="268.071" y="-91.3" font-family="Times,serif" font-size="14.00">reviewed_id :integer</text>
<text text-anchor="start" x="268.071" y="-77.3" font-family="Times,serif" font-size="14.00">title :string</text>
<text text-anchor="start" x="268.071" y="-63.3" font-family="Times,serif" font-size="14.00">body :text</text>
<text text-anchor="start" x="268.071" y="-49.3" font-family="Times,serif" font-size="14.00">rating :integer</text>
<text text-anchor="start" x="268.071" y="-35.3" font-family="Times,serif" font-size="14.00">project_id :integer</text>
<text text-anchor="start" x="268.071" y="-21.3" font-family="Times,serif" font-size="14.00">created_at :datetime</text>
<text text-anchor="start" x="268.071" y="-7.3" font-family="Times,serif" font-size="14.00">updated_at :datetime</text>
</g>
<!-- Project&#45;&gt;Review -->
<g id="edge1" class="edge"><title>Project&#45;&gt;Review</title>
<path fill="none" stroke="#76a4cc" d="M268.946,-186.927C273.089,-179.204 277.286,-171.38 281.427,-163.66"/>
<ellipse fill="none" stroke="#76a4cc" cx="266.916" cy="-190.711" rx="4.00002" ry="4.00002"/>
<ellipse fill="#76a4cc" stroke="#76a4cc" cx="283.321" cy="-160.13" rx="4.00002" ry="4.00002"/>
</g>
<!-- User -->
<g id="node6" class="node"><title>User</title>
<path fill="none" stroke="black" d="M243.298,-401.5C243.298,-401.5 423.854,-401.5 423.854,-401.5 429.854,-401.5 435.854,-407.5 435.854,-413.5 435.854,-413.5 435.854,-713.5 435.854,-713.5 435.854,-719.5 429.854,-725.5 423.854,-725.5 423.854,-725.5 243.298,-725.5 243.298,-725.5 237.298,-725.5 231.298,-719.5 231.298,-713.5 231.298,-713.5 231.298,-413.5 231.298,-413.5 231.298,-407.5 237.298,-401.5 243.298,-401.5"/>
<text text-anchor="middle" x="333.576" y="-710.3" font-family="Times,serif" font-size="14.00">User</text>
<polyline fill="none" stroke="black" points="231.298,-703.5 435.854,-703.5 "/>
<text text-anchor="start" x="239.298" y="-688.3" font-family="Times,serif" font-size="14.00">id :integer</text>
<text text-anchor="start" x="239.298" y="-674.3" font-family="Times,serif" font-size="14.00">created_at :datetime</text>
<text text-anchor="start" x="239.298" y="-660.3" font-family="Times,serif" font-size="14.00">updated_at :datetime</text>
<text text-anchor="start" x="239.298" y="-646.3" font-family="Times,serif" font-size="14.00">email :string</text>
<text text-anchor="start" x="239.298" y="-632.3" font-family="Times,serif" font-size="14.00">encrypted_password :string</text>
<text text-anchor="start" x="239.298" y="-618.3" font-family="Times,serif" font-size="14.00">reset_password_token :string</text>
<text text-anchor="start" x="239.298" y="-604.3" font-family="Times,serif" font-size="14.00">reset_password_sent_at :datetime</text>
<text text-anchor="start" x="239.298" y="-590.3" font-family="Times,serif" font-size="14.00">remember_created_at :datetime</text>
<text text-anchor="start" x="239.298" y="-576.3" font-family="Times,serif" font-size="14.00">sign_in_count :integer</text>
<text text-anchor="start" x="239.298" y="-562.3" font-family="Times,serif" font-size="14.00">current_sign_in_at :datetime</text>
<text text-anchor="start" x="239.298" y="-548.3" font-family="Times,serif" font-size="14.00">last_sign_in_at :datetime</text>
<text text-anchor="start" x="239.298" y="-534.3" font-family="Times,serif" font-size="14.00">current_sign_in_ip :string</text>
<text text-anchor="start" x="239.298" y="-520.3" font-family="Times,serif" font-size="14.00">last_sign_in_ip :string</text>
<text text-anchor="start" x="239.298" y="-506.3" font-family="Times,serif" font-size="14.00">confirmation_token :string</text>
<text text-anchor="start" x="239.298" y="-492.3" font-family="Times,serif" font-size="14.00">confirmed_at :datetime</text>
<text text-anchor="start" x="239.298" y="-478.3" font-family="Times,serif" font-size="14.00">confirmation_sent_at :datetime</text>
<text text-anchor="start" x="239.298" y="-464.3" font-family="Times,serif" font-size="14.00">unconfirmed_email :string</text>
<text text-anchor="start" x="239.298" y="-450.3" font-family="Times,serif" font-size="14.00">admin :boolean</text>
<text text-anchor="start" x="239.298" y="-436.3" font-family="Times,serif" font-size="14.00">first_name :string</text>
<text text-anchor="start" x="239.298" y="-422.3" font-family="Times,serif" font-size="14.00">last_name :string</text>
<text text-anchor="start" x="239.298" y="-408.3" font-family="Times,serif" font-size="14.00">is_company :boolean</text>
</g>
<!-- User&#45;&gt;Bid -->
<g id="edge4" class="edge"><title>User&#45;&gt;Bid</title>
<path fill="none" stroke="#d5222c" d="M224.582,-403.129C223.586,-402.408 222.584,-401.698 221.576,-401 184.08,-375.055 50.6154,-386.956 22.5759,-351 -22.0792,-293.737 8.31797,-210.707 41.3103,-151.567"/>
<ellipse fill="none" stroke="#d5222c" cx="227.88" cy="-405.637" rx="4.00002" ry="4.00002"/>
<polygon fill="#d5222c" stroke="#d5222c" points="41.4413,-151.337 50.3093,-144.887 43.9217,-146.996 46.402,-142.655 46.402,-142.655 46.402,-142.655 43.9217,-146.996 42.4947,-140.422 41.4413,-151.337 41.4413,-151.337"/>
</g>
<!-- User&#45;&gt;CompanyProfile -->
<g id="edge15" class="edge"><title>User&#45;&gt;CompanyProfile</title>
<path fill="none" stroke="#eb05ce" d="M225.528,-404.72C224.218,-403.462 222.9,-402.222 221.576,-401 209.867,-390.196 203.877,-391.77 190.576,-383 170.688,-369.887 164.713,-367.548 147.576,-351 140.604,-344.267 133.702,-336.752 127.177,-329.122"/>
<ellipse fill="none" stroke="#eb05ce" cx="228.377" cy="-407.529" rx="4.00002" ry="4.00002"/>
<ellipse fill="#eb05ce" stroke="#eb05ce" cx="124.361" cy="-325.766" rx="4.00002" ry="4.00002"/>
</g>
<!-- User&#45;&gt;Project -->
<g id="edge3" class="edge"><title>User&#45;&gt;Project</title>
<path fill="none" stroke="#95c08a" d="M225.418,-405.129C224.141,-403.737 222.86,-402.361 221.576,-401 212.666,-391.56 204.261,-394.669 198.576,-383 195.161,-375.992 193.423,-368.501 192.921,-360.851"/>
<ellipse fill="none" stroke="#95c08a" cx="228.313" cy="-408.344" rx="4.00002" ry="4.00002"/>
<polygon fill="#95c08a" stroke="#95c08a" points="192.921,-360.729 197.435,-350.735 192.928,-355.729 192.935,-350.729 192.935,-350.729 192.935,-350.729 192.928,-355.729 188.435,-350.722 192.921,-360.729 192.921,-360.729"/>
</g>
<!-- User&#45;&gt;Project -->
<g id="edge9" class="edge"><title>User&#45;&gt;Project</title>
<path fill="none" stroke="#2228c9" d="M227.248,-407.846C223.889,-399.628 220.932,-391.324 218.493,-383 216.39,-375.825 215.053,-368.274 214.295,-360.631"/>
<polygon fill="#2228c9" stroke="#2228c9" points="227.268,-407.892 227.069,-418.856 229.237,-412.488 231.206,-417.084 231.206,-417.084 231.206,-417.084 229.237,-412.488 235.342,-415.312 227.268,-407.892 227.268,-407.892"/>
<polygon fill="#2228c9" stroke="#2228c9" points="214.289,-360.531 218.107,-350.252 213.953,-355.542 213.617,-350.554 213.617,-350.554 213.617,-350.554 213.953,-355.542 209.128,-350.856 214.289,-360.531 214.289,-360.531"/>
<text text-anchor="middle" x="269.117" y="-371.8" font-family="Times,serif" font-size="14.00">followed_projects</text>
</g>
<!-- User&#45;&gt;Review -->
<g id="edge10" class="edge"><title>User&#45;&gt;Review</title>
<path fill="none" stroke="#affe0d" d="M331.12,-393.076C330.015,-316.767 328.755,-229.889 327.843,-166.961"/>
<ellipse fill="none" stroke="#affe0d" cx="331.182" cy="-397.333" rx="4" ry="4"/>
<polygon fill="#affe0d" stroke="#affe0d" points="327.839,-166.679 332.194,-156.615 327.767,-161.679 327.694,-156.68 327.694,-156.68 327.694,-156.68 327.767,-161.679 323.195,-156.745 327.839,-166.679 327.839,-166.679"/>
<text text-anchor="middle" x="361.29" y="-268.3" font-family="Times,serif" font-size="14.00">in_reviews</text>
</g>
<!-- User&#45;&gt;Review -->
<g id="edge11" class="edge"><title>User&#45;&gt;Review</title>
<path fill="none" stroke="#1d326c" d="M392.883,-393.227C406.983,-330.061 413.407,-258.136 395.576,-194 392.942,-184.525 389.289,-175.049 385.027,-165.833"/>
<ellipse fill="none" stroke="#1d326c" cx="391.928" cy="-397.384" rx="4.00001" ry="4.00001"/>
<polygon fill="#1d326c" stroke="#1d326c" points="384.962,-165.7 384.621,-154.739 382.77,-161.206 380.577,-156.712 380.577,-156.712 380.577,-156.712 382.77,-161.206 376.533,-158.685 384.962,-165.7 384.962,-165.7"/>
<text text-anchor="middle" x="440.79" y="-268.3" font-family="Times,serif" font-size="14.00">out_reviews</text>
</g>
<!-- User&#45;&gt;User -->
<g id="edge7" class="edge"><title>User&#45;&gt;User</title>
<path fill="none" stroke="#e02b25" d="M446.175,-568.817C451.029,-567.454 453.854,-565.682 453.854,-563.5 453.854,-561.318 451.029,-559.546 446.175,-558.183"/>
<polygon fill="#e02b25" stroke="#e02b25" points="446.052,-568.841 435.384,-566.304 441.142,-569.782 436.231,-570.724 436.231,-570.724 436.231,-570.724 441.142,-569.782 437.079,-575.143 446.052,-568.841 446.052,-568.841"/>
<polygon fill="#e02b25" stroke="#e02b25" points="446.052,-558.159 437.079,-551.857 441.142,-557.218 436.231,-556.276 436.231,-556.276 436.231,-556.276 441.142,-557.218 435.384,-560.696 446.052,-558.159 446.052,-558.159"/>
<text text-anchor="middle" x="480.292" y="-559.3" font-family="Times,serif" font-size="14.00">followers</text>
</g>
<!-- User&#45;&gt;User -->
<g id="edge8" class="edge"><title>User&#45;&gt;User</title>
<path fill="none" stroke="#7ce9e5" d="M446.23,-580.828C479.795,-579.981 506.73,-574.205 506.73,-563.5 506.73,-552.795 479.795,-547.019 446.23,-546.172"/>
<polygon fill="#7ce9e5" stroke="#7ce9e5" points="446.115,-580.829 436.068,-576.435 441.116,-580.882 436.116,-580.935 436.116,-580.935 436.116,-580.935 441.116,-580.882 436.164,-585.435 446.115,-580.829 446.115,-580.829"/>
<polygon fill="#7ce9e5" stroke="#7ce9e5" points="446.115,-546.171 436.164,-541.565 441.116,-546.118 436.116,-546.065 436.116,-546.065 436.116,-546.065 441.116,-546.118 436.068,-550.565 446.115,-546.171 446.115,-546.171"/>
<text text-anchor="middle" x="549.499" y="-559.3" font-family="Times,serif" font-size="14.00">followed_users</text>
</g>
<!-- User&#45;&gt;User -->
<g id="edge12" class="edge"><title>User&#45;&gt;User</title>
<path fill="none" stroke="#da2ec6" d="M445.918,-588.537C517.034,-592.891 592.268,-584.545 592.268,-563.5 592.268,-542.455 517.034,-534.109 445.918,-538.463"/>
<polygon fill="#da2ec6" stroke="#da2ec6" points="445.895,-588.535 436.233,-583.349 440.907,-588.186 435.919,-587.838 435.919,-587.838 435.919,-587.838 440.907,-588.186 435.606,-592.327 445.895,-588.535 445.895,-588.535"/>
<polygon fill="#da2ec6" stroke="#da2ec6" points="445.895,-538.465 435.606,-534.673 440.907,-538.814 435.919,-539.162 435.919,-539.162 435.919,-539.162 440.907,-538.814 436.233,-543.651 445.895,-538.465 445.895,-538.465"/>
<text text-anchor="middle" x="619.475" y="-559.3" font-family="Times,serif" font-size="14.00">reviewers</text>
</g>
<!-- User&#45;&gt;User -->
<g id="edge13" class="edge"><title>User&#45;&gt;User</title>
<path fill="none" stroke="#9eb533" d="M445.919,-595.071C537.639,-604.43 646.682,-593.907 646.682,-563.5 646.682,-533.093 537.639,-522.57 445.919,-531.929"/>
<polygon fill="#9eb533" stroke="#9eb533" points="445.907,-595.069 436.463,-589.496 440.937,-594.519 435.968,-593.968 435.968,-593.968 435.968,-593.968 440.937,-594.519 435.472,-598.441 445.907,-595.069 445.907,-595.069"/>
<polygon fill="#9eb533" stroke="#9eb533" points="445.907,-531.931 435.472,-528.559 440.937,-532.481 435.968,-533.032 435.968,-533.032 435.968,-533.032 440.937,-532.481 436.463,-537.504 445.907,-531.931 445.907,-531.931"/>
<text text-anchor="middle" x="695.661" y="-559.3" font-family="Times,serif" font-size="14.00">reviewed_pojects</text>
</g>
<!-- UserProfile -->
<g id="node7" class="node"><title>UserProfile</title>
<path fill="none" stroke="black" d="M521.888,-208.5C521.888,-208.5 633.264,-208.5 633.264,-208.5 639.264,-208.5 645.264,-214.5 645.264,-220.5 645.264,-220.5 645.264,-324.5 645.264,-324.5 645.264,-330.5 639.264,-336.5 633.264,-336.5 633.264,-336.5 521.888,-336.5 521.888,-336.5 515.888,-336.5 509.888,-330.5 509.888,-324.5 509.888,-324.5 509.888,-220.5 509.888,-220.5 509.888,-214.5 515.888,-208.5 521.888,-208.5"/>
<text text-anchor="middle" x="577.576" y="-321.3" font-family="Times,serif" font-size="14.00">UserProfile</text>
<polyline fill="none" stroke="black" points="509.888,-314.5 645.264,-314.5 "/>
<text text-anchor="start" x="517.888" y="-299.3" font-family="Times,serif" font-size="14.00">id :integer</text>
<text text-anchor="start" x="517.888" y="-285.3" font-family="Times,serif" font-size="14.00">user_id :integer</text>
<text text-anchor="start" x="517.888" y="-271.3" font-family="Times,serif" font-size="14.00">short_tag_line :string</text>
<text text-anchor="start" x="517.888" y="-257.3" font-family="Times,serif" font-size="14.00">description :text</text>
<text text-anchor="start" x="517.888" y="-243.3" font-family="Times,serif" font-size="14.00">work_history :text</text>
<text text-anchor="start" x="517.888" y="-229.3" font-family="Times,serif" font-size="14.00">created_at :datetime</text>
<text text-anchor="start" x="517.888" y="-215.3" font-family="Times,serif" font-size="14.00">updated_at :datetime</text>
</g>
<!-- User&#45;&gt;UserProfile -->
<g id="edge14" class="edge"><title>User&#45;&gt;UserProfile</title>
<path fill="none" stroke="#952c34" d="M441.35,-434.849C468.093,-403.175 495.759,-370.406 519.116,-342.741"/>
<ellipse fill="none" stroke="#952c34" cx="438.574" cy="-438.138" rx="4.00002" ry="4.00002"/>
<ellipse fill="#952c34" stroke="#952c34" cx="521.759" cy="-339.611" rx="4.00002" ry="4.00002"/>
</g>
<!-- Follow -->
<g id="node8" class="node"><title>Follow</title>
<ellipse fill="none" stroke="black" cx="698.576" cy="-272.5" rx="35.3389" ry="18"/>
<text text-anchor="middle" x="698.576" y="-268.3" font-family="Times,serif" font-size="14.00">Follow</text>
</g>
<!-- User&#45;&gt;Follow -->
<g id="edge5" class="edge"><title>User&#45;&gt;Follow</title>
<path fill="none" stroke="#2207ec" d="M442.696,-477.31C492.011,-441.138 552.051,-400.211 609.686,-369 628.588,-358.764 638.386,-365.139 654.576,-351 670.21,-337.346 681.541,-316.719 688.786,-300.178"/>
<ellipse fill="none" stroke="#2207ec" cx="439.34" cy="-479.781" rx="4.00002" ry="4.00002"/>
<polygon fill="#2207ec" stroke="#2207ec" points="688.962,-299.751 696.932,-292.219 690.867,-295.128 692.771,-290.505 692.771,-290.505 692.771,-290.505 690.867,-295.128 688.611,-288.791 688.962,-299.751 688.962,-299.751"/>
<text text-anchor="middle" x="643.021" y="-371.8" font-family="Times,serif" font-size="14.00">out_follows</text>
</g>
<!-- User&#45;&gt;Follow -->
<g id="edge6" class="edge"><title>User&#45;&gt;Follow</title>
<path fill="none" stroke="#6c2d01" d="M443.974,-532.497C520.891,-505.829 619.56,-459.027 676.576,-383 694.433,-359.189 698.785,-324.567 699.408,-300.657"/>
<ellipse fill="none" stroke="#6c2d01" cx="439.915" cy="-533.882" rx="4.00001" ry="4.00001"/>
<polygon fill="#6c2d01" stroke="#6c2d01" points="699.409,-300.503 703.967,-290.529 699.438,-295.503 699.467,-290.503 699.467,-290.503 699.467,-290.503 699.438,-295.503 694.967,-290.477 699.409,-300.503 699.409,-300.503"/>
<text text-anchor="middle" x="713.521" y="-371.8" font-family="Times,serif" font-size="14.00">in_follows</text>
</g>
</g>
</svg>
