<?xml version="1.0" encoding="UTF-8" standalone="no"?>
<!DOCTYPE svg PUBLIC "-//W3C//DTD SVG 1.1//EN"
 "http://www.w3.org/Graphics/SVG/1.1/DTD/svg11.dtd">
<!-- Generated by graphviz version 2.38.0 (20140413.2041)
 -->
<!-- Title: models_diagram Pages: 1 -->
<svg width="722pt" height="240pt"
 viewBox="0.00 0.00 722.20 240.00" xmlns="http://www.w3.org/2000/svg" xmlns:xlink="http://www.w3.org/1999/xlink">
<g id="graph0" class="graph" transform="scale(1 1) rotate(0) translate(4 236)">
<title>models_diagram</title>
<polygon fill="none" stroke="none" points="-4,4 -4,-236 718.199,-236 718.199,4 -4,4"/>
<!-- _diagram_info -->
<g id="node1" class="node"><title>_diagram_info</title>
<text text-anchor="start" x="37.3586" y="-217.6" font-family="Times,serif" font-size="13.00">Models diagram</text>
<text text-anchor="start" x="37.3586" y="-204.6" font-family="Times,serif" font-size="13.00">Date: Jul 30 2015 &#45; 00:47</text>
<text text-anchor="start" x="37.3586" y="-191.6" font-family="Times,serif" font-size="13.00">Migration version: 20150718011644</text>
<text text-anchor="start" x="37.3586" y="-178.6" font-family="Times,serif" font-size="13.00">Generated by RailRoady 1.3.1</text>
<text text-anchor="start" x="37.3586" y="-165.6" font-family="Times,serif" font-size="13.00">http://railroady.prestonlee.com</text>
</g>
<!-- Bid -->
<g id="node2" class="node"><title>Bid</title>
<ellipse fill="none" stroke="black" cx="139.808" cy="-18" rx="27" ry="18"/>
<text text-anchor="middle" x="139.808" y="-13.8" font-family="Times,serif" font-size="14.00">Bid</text>
</g>
<!-- CompanyProfile -->
<g id="node3" class="node"><title>CompanyProfile</title>
<ellipse fill="none" stroke="black" cx="83.8083" cy="-91" rx="68.1633" ry="18"/>
<text text-anchor="middle" x="83.8083" y="-86.8" font-family="Times,serif" font-size="14.00">CompanyProfile</text>
</g>
<!-- Follow -->
<g id="node4" class="node"><title>Follow</title>
<ellipse fill="none" stroke="black" cx="205.808" cy="-91" rx="35.3389" ry="18"/>
<text text-anchor="middle" x="205.808" y="-86.8" font-family="Times,serif" font-size="14.00">Follow</text>
</g>
<!-- Project -->
<g id="node5" class="node"><title>Project</title>
<ellipse fill="none" stroke="black" cx="303.808" cy="-91" rx="35.3129" ry="18"/>
<text text-anchor="middle" x="303.808" y="-86.8" font-family="Times,serif" font-size="14.00">Project</text>
</g>
<!-- Project&#45;&gt;Bid -->
<g id="edge2" class="edge"><title>Project&#45;&gt;Bid</title>
<path fill="none" stroke="#7c705b" d="M270.362,-75.5202C241.415,-62.9884 199.853,-44.9949 171.448,-32.6975"/>
<ellipse fill="none" stroke="#7c705b" cx="274.151" cy="-77.1606" rx="4.00002" ry="4.00002"/>
<polygon fill="#7c705b" stroke="#7c705b" points="171.168,-32.5766 163.779,-24.474 166.58,-30.5901 161.991,-28.6036 161.991,-28.6036 161.991,-28.6036 166.58,-30.5901 160.204,-32.7333 171.168,-32.5766 171.168,-32.5766"/>
</g>
<!-- Review -->
<g id="node6" class="node"><title>Review</title>
<ellipse fill="none" stroke="black" cx="429.808" cy="-18" rx="37.2421" ry="18"/>
<text text-anchor="middle" x="429.808" y="-13.8" font-family="Times,serif" font-size="14.00">Review</text>
</g>
<!-- Project&#45;&gt;Review -->
<g id="edge1" class="edge"><title>Project&#45;&gt;Review</title>
<path fill="none" stroke="#278ee6" d="M333.838,-73.0787C353.606,-61.9392 379.406,-47.4013 399.276,-36.2047"/>
<ellipse fill="none" stroke="#278ee6" cx="330.111" cy="-75.1787" rx="4.00002" ry="4.00002"/>
<ellipse fill="#278ee6" stroke="#278ee6" cx="402.821" cy="-34.207" rx="4.00002" ry="4.00002"/>
</g>
<!-- User -->
<g id="node7" class="node"><title>User</title>
<ellipse fill="none" stroke="black" cx="280.808" cy="-195.5" rx="27" ry="18"/>
<text text-anchor="middle" x="280.808" y="-191.3" font-family="Times,serif" font-size="14.00">User</text>
</g>
<!-- User&#45;&gt;Bid -->
<g id="edge4" class="edge"><title>User&#45;&gt;Bid</title>
<path fill="none" stroke="#711352" d="M263.66,-173.055C258.214,-167.61 251.777,-162.357 244.808,-159 147.431,-112.091 68.8174,-197.53 6.8083,-109 -2.37085,-95.8949 -2.12745,-86.2722 6.8083,-73 28.1283,-41.3335 71.5544,-28.229 102.998,-22.8108"/>
<ellipse fill="none" stroke="#711352" cx="266.432" cy="-176.031" rx="4.00002" ry="4.00002"/>
<polygon fill="#711352" stroke="#711352" points="103.268,-22.7693 113.835,-25.7001 108.21,-22.0108 113.152,-21.2522 113.152,-21.2522 113.152,-21.2522 108.21,-22.0108 112.47,-16.8043 103.268,-22.7693 103.268,-22.7693"/>
</g>
<!-- User&#45;&gt;CompanyProfile -->
<g id="edge15" class="edge"><title>User&#45;&gt;CompanyProfile</title>
<path fill="none" stroke="#548fd3" d="M263.629,-173.118C258.183,-167.674 251.753,-162.406 244.808,-159 190.857,-132.54 160.391,-174.947 110.808,-141 102.293,-135.17 96.195,-125.739 91.9747,-116.7"/>
<ellipse fill="none" stroke="#548fd3" cx="266.402" cy="-176.09" rx="4.00002" ry="4.00002"/>
<ellipse fill="#548fd3" stroke="#548fd3" cx="90.4092" cy="-112.975" rx="4.00002" ry="4.00002"/>
</g>
<!-- User&#45;&gt;Follow -->
<g id="edge5" class="edge"><title>User&#45;&gt;Follow</title>
<path fill="none" stroke="#17cc85" d="M263.615,-173.146C258.169,-167.703 251.743,-162.428 244.808,-159 219.08,-146.281 135.745,-162.662 116.919,-141 112.837,-136.304 113.416,-132.143 116.919,-127 117.739,-125.795 144.481,-115.353 168.418,-106.185"/>
<ellipse fill="none" stroke="#17cc85" cx="266.388" cy="-176.116" rx="4.00002" ry="4.00002"/>
<polygon fill="#17cc85" stroke="#17cc85" points="168.735,-106.064 179.683,-106.7 173.406,-104.28 178.077,-102.496 178.077,-102.496 178.077,-102.496 173.406,-104.28 176.471,-98.2921 168.735,-106.064 168.735,-106.064"/>
<text text-anchor="middle" x="151.253" y="-129.8" font-family="Times,serif" font-size="14.00">out_follows</text>
</g>
<!-- User&#45;&gt;Follow -->
<g id="edge6" class="edge"><title>User&#45;&gt;Follow</title>
<path fill="none" stroke="#d57b7c" d="M260.474,-174.182C247.069,-160.678 231.521,-144.76 228.919,-141 224.101,-134.039 219.815,-125.917 216.281,-118.309"/>
<ellipse fill="none" stroke="#d57b7c" cx="263.606" cy="-177.33" rx="4.00002" ry="4.00002"/>
<polygon fill="#d57b7c" stroke="#d57b7c" points="216.247,-118.231 216.345,-107.266 214.236,-113.653 212.225,-109.075 212.225,-109.075 212.225,-109.075 214.236,-113.653 208.105,-110.885 216.247,-118.231 216.247,-118.231"/>
<text text-anchor="middle" x="259.753" y="-129.8" font-family="Times,serif" font-size="14.00">in_follows</text>
</g>
<!-- User&#45;&gt;Project -->
<g id="edge3" class="edge"><title>User&#45;&gt;Project</title>
<path fill="none" stroke="#62fc32" d="M285.676,-169.621C288.25,-156.849 291.545,-141.058 294.808,-127 295.425,-124.341 296.093,-121.576 296.775,-118.816"/>
<ellipse fill="none" stroke="#62fc32" cx="284.881" cy="-173.607" rx="4.00001" ry="4.00001"/>
<polygon fill="#62fc32" stroke="#62fc32" points="296.794,-118.743 303.614,-110.157 298.023,-113.897 299.252,-109.05 299.252,-109.05 299.252,-109.05 298.023,-113.897 294.89,-107.944 296.794,-118.743 296.794,-118.743"/>
</g>
<!-- User&#45;&gt;Project -->
<g id="edge9" class="edge"><title>User&#45;&gt;Project</title>
<path fill="none" stroke="#930252" d="M286.833,-167.649C290.188,-152.699 294.354,-134.134 297.719,-119.138"/>
<polygon fill="#930252" stroke="#930252" points="286.796,-167.817 280.215,-176.589 285.701,-172.696 284.606,-177.574 284.606,-177.574 284.606,-177.574 285.701,-172.696 288.997,-178.56 286.796,-167.817 286.796,-167.817"/>
<polygon fill="#930252" stroke="#930252" points="297.815,-118.708 304.395,-109.936 298.91,-113.83 300.005,-108.951 300.005,-108.951 300.005,-108.951 298.91,-113.83 295.614,-107.966 297.815,-118.708 297.815,-118.708"/>
<text text-anchor="middle" x="346.35" y="-129.8" font-family="Times,serif" font-size="14.00">followed_projects</text>
</g>
<!-- User&#45;&gt;Review -->
<g id="edge10" class="edge"><title>User&#45;&gt;Review</title>
<path fill="none" stroke="#8ab7a7" d="M315.01,-187.932C342.207,-180.922 379.166,-167.095 400.808,-141 423.04,-114.195 428.811,-73.2549 430.013,-46.3101"/>
<ellipse fill="none" stroke="#8ab7a7" cx="310.798" cy="-188.952" rx="4.00001" ry="4.00001"/>
<polygon fill="#8ab7a7" stroke="#8ab7a7" points="430.02,-46.04 434.779,-36.1607 430.15,-41.0417 430.28,-36.0434 430.28,-36.0434 430.28,-36.0434 430.15,-41.0417 425.782,-35.9262 430.02,-46.04 430.02,-46.04"/>
<text text-anchor="middle" x="458.522" y="-86.8" font-family="Times,serif" font-size="14.00">in_reviews</text>
</g>
<!-- User&#45;&gt;Review -->
<g id="edge11" class="edge"><title>User&#45;&gt;Review</title>
<path fill="none" stroke="#f14234" d="M315.757,-192.143C365.182,-186.697 453.815,-168.669 492.808,-109 501.561,-95.6064 499.494,-87.5362 492.808,-73 486.206,-58.6445 473.695,-46.6772 461.552,-37.687"/>
<ellipse fill="none" stroke="#f14234" cx="311.57" cy="-192.566" rx="4" ry="4"/>
<polygon fill="#f14234" stroke="#f14234" points="461.496,-37.648 455.847,-28.2491 457.388,-34.7969 453.281,-31.9459 453.281,-31.9459 453.281,-31.9459 457.388,-34.7969 450.715,-35.6426 461.496,-37.648 461.496,-37.648"/>
<text text-anchor="middle" x="533.022" y="-86.8" font-family="Times,serif" font-size="14.00">out_reviews</text>
</g>
<!-- User&#45;&gt;User -->
<g id="edge7" class="edge"><title>User&#45;&gt;User</title>
<path fill="none" stroke="#586032" d="M317.752,-197.976C322.598,-197.552 325.808,-196.727 325.808,-195.5 325.808,-194.273 322.598,-193.448 317.752,-193.024"/>
<polygon fill="#586032" stroke="#586032" points="317.598,-197.981 307.457,-193.809 312.601,-198.144 307.603,-198.306 307.603,-198.306 307.603,-198.306 312.601,-198.144 307.749,-202.804 317.598,-197.981 317.598,-197.981"/>
<polygon fill="#586032" stroke="#586032" points="317.598,-193.019 307.749,-188.196 312.601,-192.856 307.603,-192.694 307.603,-192.694 307.603,-192.694 312.601,-192.856 307.457,-197.191 317.598,-193.019 317.598,-193.019"/>
<text text-anchor="middle" x="352.246" y="-191.3" font-family="Times,serif" font-size="14.00">followers</text>
</g>
<!-- User&#45;&gt;User -->
<g id="edge8" class="edge"><title>User&#45;&gt;User</title>
<path fill="none" stroke="#5d1ef8" d="M317.626,-200.615C346.147,-202.084 378.684,-200.379 378.684,-195.5 378.684,-190.621 346.147,-188.916 317.626,-190.385"/>
<polygon fill="#5d1ef8" stroke="#5d1ef8" points="317.345,-200.596 307.667,-195.44 312.356,-200.263 307.367,-199.93 307.367,-199.93 307.367,-199.93 312.356,-200.263 307.067,-204.42 317.345,-200.596 317.345,-200.596"/>
<polygon fill="#5d1ef8" stroke="#5d1ef8" points="317.345,-190.404 307.067,-186.58 312.356,-190.737 307.367,-191.07 307.367,-191.07 307.367,-191.07 312.356,-190.737 307.667,-195.56 317.345,-190.404 317.345,-190.404"/>
<text text-anchor="middle" x="421.453" y="-191.3" font-family="Times,serif" font-size="14.00">followed_users</text>
</g>
<!-- User&#45;&gt;User -->
<g id="edge12" class="edge"><title>User&#45;&gt;User</title>
<path fill="none" stroke="#5537b8" d="M317.148,-201.532C372.212,-206.139 464.222,-204.128 464.222,-195.5 464.222,-186.872 372.212,-184.861 317.148,-189.468"/>
<polygon fill="#5537b8" stroke="#5537b8" points="316.951,-201.513 307.426,-196.079 311.974,-201.036 306.997,-200.559 306.997,-200.559 306.997,-200.559 311.974,-201.036 306.567,-205.038 316.951,-201.513 316.951,-201.513"/>
<polygon fill="#5537b8" stroke="#5537b8" points="316.951,-189.487 306.567,-185.962 311.974,-189.964 306.997,-190.441 306.997,-190.441 306.997,-190.441 311.974,-189.964 307.426,-194.921 316.951,-189.487 316.951,-189.487"/>
<text text-anchor="middle" x="491.429" y="-191.3" font-family="Times,serif" font-size="14.00">reviewers</text>
</g>
<!-- User&#45;&gt;User -->
<g id="edge13" class="edge"><title>User&#45;&gt;User</title>
<path fill="none" stroke="#28e757" d="M316.597,-202.529C385.485,-209.937 518.636,-207.594 518.636,-195.5 518.636,-183.406 385.485,-181.063 316.597,-188.471"/>
<polygon fill="#28e757" stroke="#28e757" points="316.45,-202.511 307.062,-196.844 311.486,-201.911 306.522,-201.311 306.522,-201.311 306.522,-201.311 311.486,-201.911 305.982,-205.779 316.45,-202.511 316.45,-202.511"/>
<polygon fill="#28e757" stroke="#28e757" points="316.45,-188.489 305.982,-185.221 311.486,-189.089 306.522,-189.689 306.522,-189.689 306.522,-189.689 311.486,-189.089 307.062,-194.156 316.45,-188.489 316.45,-188.489"/>
<text text-anchor="middle" x="567.616" y="-191.3" font-family="Times,serif" font-size="14.00">reviewed_pojects</text>
</g>
<!-- UserProfile -->
<g id="node8" class="node"><title>UserProfile</title>
<ellipse fill="none" stroke="black" cx="663.808" cy="-91" rx="50.281" ry="18"/>
<text text-anchor="middle" x="663.808" y="-86.8" font-family="Times,serif" font-size="14.00">UserProfile</text>
</g>
<!-- User&#45;&gt;UserProfile -->
<g id="edge14" class="edge"><title>User&#45;&gt;UserProfile</title>
<path fill="none" stroke="#56d955" d="M314.953,-189.445C365.107,-181.578 461.353,-164.799 540.808,-141 570.215,-132.192 602.413,-119.239 626.488,-108.863"/>
<ellipse fill="none" stroke="#56d955" cx="310.969" cy="-190.062" rx="4.00001" ry="4.00001"/>
<ellipse fill="#56d955" stroke="#56d955" cx="630.338" cy="-107.188" rx="4.00002" ry="4.00002"/>
</g>
</g>
</svg>
